<svg width="35.000000" height="30.745605" viewBox="0 0 35 30.7456" fill="none" xmlns="http://www.w3.org/2000/svg" xmlns:xlink="http://www.w3.org/1999/xlink">
	<desc>
			Created with Pixso.
	</desc>
	<defs/>
	<path id="Vector" d="M0.53 0.14C0.23 0.29 0 0.69 0 1.02C0 1.36 0.23 1.75 0.54 1.91C0.79 2.04 0.94 2.05 3.05 2.05L5.3 2.05L7.77 10.7L10.24 19.35L10.04 19.75C9.7 20.43 9.55 20.96 9.55 21.53C9.55 22.95 10.47 24.14 11.86 24.5C12.15 24.58 12.64 24.6 13.67 24.61C14.93 24.62 15.03 24.62 14.73 24.7C14.15 24.84 13.72 25.09 13.28 25.53C12.07 26.73 12.07 28.62 13.29 29.83C15.05 31.6 18.04 30.64 18.47 28.17C18.63 27.2 18.32 26.25 17.6 25.52C17.17 25.09 16.62 24.78 16.11 24.67C15.94 24.65 17.9 24.62 20.61 24.62C24.57 24.62 25.33 24.63 25.05 24.7C24.47 24.84 24.04 25.09 23.61 25.53C22.4 26.73 22.4 28.63 23.61 29.83C25.38 31.6 28.36 30.64 28.79 28.17C29.05 26.61 28.03 25.08 26.48 24.7C26.19 24.62 26.41 24.62 28.11 24.61C29.94 24.6 30.1 24.6 30.35 24.47C30.65 24.31 30.89 23.92 30.89 23.58C30.89 23.24 30.65 22.85 30.35 22.69C30.08 22.55 29.96 22.55 21.24 22.55C12.96 22.55 12.39 22.55 12.16 22.43C11.61 22.16 11.47 21.56 11.8 20.88L11.99 20.5L21.03 20.5C30 20.5 30.08 20.5 30.35 20.37C30.54 20.26 30.67 20.14 30.76 19.94C30.94 19.55 35 5.31 35 5.07C35 4.79 34.72 4.37 34.45 4.23C34.22 4.1 33.74 4.1 21.11 4.1L8.01 4.1L7.56 2.47C6.99 0.49 6.92 0.32 6.53 0.14C6.25 0 6.13 0 3.51 0C0.93 0 0.77 0.01 0.53 0.14ZM32.58 6.26C32.55 6.33 31.77 9.1 30.82 12.42L29.1 18.45L20.61 18.45L12.12 18.45L10.39 12.42C9.44 9.1 8.66 6.33 8.64 6.26C8.6 6.15 9.2 6.15 20.61 6.15C32.01 6.15 32.61 6.15 32.58 6.26ZM15.92 26.79C16.23 26.95 16.47 27.34 16.47 27.69C16.47 28.19 15.95 28.71 15.44 28.71C15.12 28.71 14.7 28.44 14.55 28.15C14.3 27.65 14.45 27.11 14.94 26.82C15.27 26.62 15.57 26.61 15.92 26.79ZM26.25 26.79C26.55 26.95 26.79 27.34 26.79 27.69C26.79 28.19 26.27 28.71 25.76 28.71C25.45 28.71 25.02 28.44 24.87 28.15C24.62 27.65 24.78 27.11 25.26 26.82C25.59 26.62 25.89 26.61 26.25 26.79Z" fill="#FFFFFF" fill-opacity="1.000000" fill-rule="nonzero"/>
</svg>
